<?xml version="1.0" standalone="no"?>
<!DOCTYPE svg PUBLIC "-//W3C//DTD SVG 20010904//EN"
 "http://www.w3.org/TR/2001/REC-SVG-20010904/DTD/svg10.dtd">
<svg version="1.0" xmlns="http://www.w3.org/2000/svg"
 width="512.000000pt" height="512.000000pt" viewBox="0 0 512.000000 512.000000"
 preserveAspectRatio="xMidYMid meet">
<metadata>
Created by potrace 1.14, written by Peter Selinger 2001-2017
</metadata>
<g transform="translate(0.000000,512.000000) scale(0.100000,-0.100000)"
fill="#000000" stroke="none">
<path d="M43 2555 l0 -1376 626 4 c344 2 637 6 651 10 14 3 54 11 90 17 36 7
75 14 87 16 53 10 212 68 289 105 398 191 651 548 715 1009 12 92 15 315 5
395 -25 194 -92 413 -159 519 -7 11 -27 45 -46 75 -102 167 -297 343 -484 438
-120 60 -308 120 -437 139 -25 3 -56 9 -70 12 -14 3 -304 7 -646 9 l-621 4 0
-1376z m1154 791 c185 -30 313 -93 428 -211 116 -117 173 -246 201 -455 6 -39
5 -231 -1 -265 -3 -16 -7 -43 -10 -60 -10 -56 -13 -70 -36 -135 -60 -174 -205
-325 -379 -396 -112 -45 -225 -61 -465 -63 l-222 -2 0 799 0 800 226 -3 c124
-2 241 -6 258 -9z"/>
<path d="M2612 2555 l0 -1376 592 2 c605 1 683 5 853 44 461 105 816 425 958
862 14 45 28 94 31 110 2 15 7 39 10 53 12 51 14 67 21 155 36 464 -93 854
-373 1132 -59 58 -204 173 -219 173 -3 0 -23 11 -43 25 -89 61 -356 154 -490
170 -26 4 -58 9 -72 12 -14 4 -305 8 -646 10 l-622 4 0 -1376z m1193 786 c175
-40 281 -96 385 -200 101 -102 176 -248 194 -378 3 -21 8 -58 12 -83 11 -78 3
-307 -12 -331 -2 -3 -6 -20 -9 -37 -19 -108 -88 -242 -169 -326 -109 -113
-217 -169 -411 -212 -16 -3 -138 -8 -271 -11 l-240 -5 1 798 c1 440 3 800 3
801 8 7 479 -7 517 -16z"/>
</g>
</svg>
